# xmcd
#
# Track frame offsets: 
#        150
#        15488
#        38138
#        53827
#        67369
#        88013
#        99983
#        111538
#        126739
#        145565
#        162016
#        177903
#        196419
#        210145
#
# Disc length: 3033 seconds
#
# Revision: 2
# Processed by: cddbd v1.5.1PL2 Copyright (c) Steve Scherf et al.
# Submitted via: ExactAudioCopy v0.95b2
#
DISCID=c20bd70e
DTITLE=Eric Clapton - Me and mr. Johnson
DYEAR=2004
DGENRE=Blues
TTITLE0=When you got a good friend
TTITLE1=Little queen of spades
TTITLE2=They're red hot
TTITLE3=Me and the devil blues
TTITLE4=Traveling riverside blues
TTITLE5=Last fair deal gone down
TTITLE6=Stop breakin down blues
TTITLE7=Milkcows calf blues
TTITLE8=Kind hearted woman blues
TTITLE9=Come on in my kitchin
TTITLE10=If I had possession over judgem
TTITLE11=Love in vain
TTITLE12=32-20 blues
TTITLE13=Hell hound on my trail
EXTD=
EXTT0=
EXTT1=
EXTT2=
EXTT3=
EXTT4=
EXTT5=
EXTT6=
EXTT7=
EXTT8=
EXTT9=
EXTT10=
EXTT11=
EXTT12=
EXTT13=
PLAYORDER=
